<?xml version="1.0" encoding="iso-8859-1"?>
<!-- Generator: Adobe Illustrator 18.0.0, SVG Export Plug-In . SVG Version: 6.00 Build 0)  -->
<!DOCTYPE svg PUBLIC "-//W3C//DTD SVG 1.1//EN" "http://www.w3.org/Graphics/SVG/1.1/DTD/svg11.dtd">
<svg version="1.1" id="Capa_1" xmlns="http://www.w3.org/2000/svg" xmlns:xlink="http://www.w3.org/1999/xlink" x="0px" y="0px"
	 viewBox="0 0 297 297" style="enable-background:new 0 0 297 297;" xml:space="preserve">
<path d="M294.908,124.97c-0.566-0.755-14.168-18.72-38.881-36.692c-32.842-23.887-70.023-36.512-107.525-36.512
	c-37.501,0-74.683,12.625-107.526,36.511C16.262,106.25,2.658,124.215,2.092,124.97c-2.789,3.719-2.789,8.831,0,12.55
	c0.497,0.663,11.019,14.555,30.262,30.084L18.36,195.59c-2.583,5.165-0.489,11.447,4.678,14.029
	c1.501,0.751,3.096,1.106,4.668,1.106c3.836,0,7.529-2.118,9.361-5.783l12.429-24.855c10.645,6.962,21.689,12.783,33.009,17.412
	l-12.379,24.758c-2.583,5.165-0.489,11.447,4.678,14.03c1.501,0.75,3.097,1.105,4.668,1.105c3.836,0,7.53-2.118,9.362-5.783
	l13.631-27.262c11.7,3.266,23.604,5.3,35.578,6.048v24.381c0,5.775,4.683,10.458,10.458,10.458c5.775,0,10.458-4.683,10.458-10.458
	v-24.381c11.976-0.748,23.878-2.782,35.578-6.048l13.631,27.262c1.833,3.665,5.525,5.783,9.362,5.783
	c1.571,0,3.168-0.355,4.668-1.105c5.167-2.583,7.261-8.865,4.678-14.03L214.497,197.5c11.321-4.63,22.364-10.451,33.01-17.414
	l12.428,24.856c1.832,3.665,5.524,5.783,9.361,5.783c1.572,0,3.168-0.355,4.669-1.106c5.166-2.582,7.26-8.864,4.677-14.029
	l-13.993-27.987c19.244-15.528,29.763-29.42,30.26-30.083C297.697,133.801,297.697,128.689,294.908,124.97z M243.167,157.701
	c-29.514,21.305-61.363,32.107-94.665,32.107c-33.303,0-65.152-10.803-94.668-32.107c-13.898-10.031-23.998-20.177-29.681-26.456
	c5.686-6.283,15.785-16.428,29.681-26.457c29.516-21.305,61.365-32.106,94.668-32.106c33.302,0,65.151,10.802,94.665,32.106
	c13.898,10.031,23.998,20.177,29.681,26.457C267.162,137.527,257.063,147.672,243.167,157.701z"/>
<g>
</g>
<g>
</g>
<g>
</g>
<g>
</g>
<g>
</g>
<g>
</g>
<g>
</g>
<g>
</g>
<g>
</g>
<g>
</g>
<g>
</g>
<g>
</g>
<g>
</g>
<g>
</g>
<g>
</g>
</svg>
